<svg id="Capa_1" data-name="Capa 1" xmlns="http://www.w3.org/2000/svg" viewBox="0 0 296.16 55.55"><defs><style>.cls-1{fill:#194175;stroke:#fff;}.cls-1,.cls-3{stroke-miterlimit:10;}.cls-2{fill:#e30613;}.cls-3{fill:#fff;stroke:#e30613;stroke-width:2px;}</style></defs><path class="cls-1" d="M158.6,47.24a7.65,7.65,0,0,0-1.51-3.18,5.69,5.69,0,0,0-4.52-1.89c-4.37,0-6.95,3.45-6.95,9.38s2.75,9.58,7,9.58a6.21,6.21,0,0,0,5.12-2.37,5.19,5.19,0,0,0,1-2.47l9.91,1.56a16.28,16.28,0,0,1-2.26,5.33c-2.69,4-7.59,6.19-13.84,6.19-5.17,0-9.59-1.61-12.55-4.63-3.13-3.07-4.85-7.81-4.85-13.09C135.17,40.88,142,34,152.46,34c8.29,0,14.06,4.09,15.84,11.25Z" transform="translate(-134.67 -22.82)"/><path class="cls-1" d="M171.47,51.65c0-10.77,6.9-17.61,17.78-17.61S207,40.88,207,51.55s-7.11,17.82-17.83,17.82S171.47,62.48,171.47,51.65Zm10.29,0c0,6,2.8,9.59,7.49,9.59s7.38-3.5,7.38-9.48-2.75-9.59-7.33-9.59C184.56,42.12,181.76,45.67,181.76,51.6Z" transform="translate(-134.67 -22.82)"/><path class="cls-1" d="M236.54,66.41a10.66,10.66,0,0,1,.05-1.18,15.14,15.14,0,0,1-10.88,3.88c-9.8,0-15.72-6.58-15.72-17.46,0-5.6,1.61-10.07,4.63-13.14a15,15,0,0,1,10.93-4.2,16.07,16.07,0,0,1,11,4c-.05-.8-.05-1.29-.05-2V31.78a60.39,60.39,0,0,0-.43-8.46h11a60.85,60.85,0,0,0-.43,8.46v27.9a64.46,64.46,0,0,0,.43,8.46H236.54Zm-16.1-14.7c0,3.07.86,5.54,2.47,7.11a7.5,7.5,0,0,0,5.23,2c4.79,0,8.29-4,8.29-9.31s-3.44-9-8.35-9C223.4,42.55,220.44,46.05,220.44,51.71Z" transform="translate(-134.67 -22.82)"/><path class="cls-1" d="M261.32,54.72c.54,4.37,3.07,6.68,7.32,6.68a7.86,7.86,0,0,0,5.44-2,5.25,5.25,0,0,0,1.62-2.75l9.37,2.64a15.68,15.68,0,0,1-3.55,5.55c-3.07,3-7.38,4.58-12.71,4.58s-9.43-1.51-12.5-4.58c-3.18-3.23-4.9-7.81-4.9-13.14C251.41,41,258.25,34,268.54,34c8.4,0,14.27,4.57,16.16,12.6a39.35,39.35,0,0,1,.8,7.06,8.75,8.75,0,0,0,.06,1.07Zm14-7.43c-.75-3.45-3.07-5.28-6.78-5.28s-6.14,1.73-7.06,5.28Z" transform="translate(-134.67 -22.82)"/><path class="cls-1" d="M314.1,45a17.42,17.42,0,0,0-5.49-1,7.73,7.73,0,0,0-6.41,2.91c-1,1.29-1.4,2.42-1.61,4.79v8.41a58,58,0,0,0,.43,8.08H289.87A61,61,0,0,0,290.3,60V43.41a53.43,53.43,0,0,0-.43-8.13h10.72v4.25c2.63-3.44,5.87-4.9,10.77-4.9a21.7,21.7,0,0,1,5.33.65Z" transform="translate(-134.67 -22.82)"/><path class="cls-2" d="M342,47.24a7.53,7.53,0,0,0-1.51-3.18,5.67,5.67,0,0,0-4.52-1.89c-4.36,0-6.95,3.45-6.95,9.38s2.75,9.58,7.06,9.58a6.2,6.2,0,0,0,5.11-2.37,5.19,5.19,0,0,0,1-2.47L352,57.85a16.28,16.28,0,0,1-2.27,5.33c-2.69,4-7.59,6.19-13.84,6.19-5.17,0-9.59-1.61-12.55-4.63-3.12-3.07-4.85-7.81-4.85-13.09,0-10.77,6.79-17.66,17.29-17.66,8.3,0,14.06,4.09,15.84,11.25Z" transform="translate(-134.67 -22.82)"/><path class="cls-3" d="M390.11,35.28a58.79,58.79,0,0,0-.43,8.08V60a51.84,51.84,0,0,0,.43,8.08H379.39V65.77c0-.27,0-1.08.05-1.46-3.55,3.34-6.62,4.63-11.2,4.63-3.61,0-6.52-1-8.57-3-2.15-2.16-3.07-4.8-3.07-9.05V43.36a68.72,68.72,0,0,0-.43-8.08h11.21a59.81,59.81,0,0,0-.43,8.08v11c0,2.21.21,3.18.86,4a4.21,4.21,0,0,0,3.5,1.51c3,0,6-2.1,8.08-5.55v-11a65.92,65.92,0,0,0-.43-8.08Z" transform="translate(-134.67 -22.82)"/><path class="cls-2" d="M396.52,42.5c-2.32-5.39-2.53-5.88-3.23-7.22H405a36,36,0,0,0,2.1,6.95l5,12.44,4.79-12.23a31.9,31.9,0,0,0,2.32-7.16h11.69c-1.35,2.8-1.35,2.8-3.23,7.22L415.26,71c-2.15,5.06-6,7.38-12.17,7.38a32.19,32.19,0,0,1-7.38-.92l1.18-8.56a8.17,8.17,0,0,0,4.21,1.18,4.57,4.57,0,0,0,4.36-2.53l1.13-2.31Z" transform="translate(-134.67 -22.82)"/></svg>